<svg width="20" height="20" viewBox="0 0 20 20" fill="none" xmlns="http://www.w3.org/2000/svg">
<path d="M9.99996 1.66669C14.6 1.66669 18.3333 5.40002 18.3333 10C18.3333 14.6 14.6 18.3334 9.99996 18.3334C5.39996 18.3334 1.66663 14.6 1.66663 10C1.66663 5.40002 5.39996 1.66669 9.99996 1.66669ZM5.01939 12.8469C6.24232 14.6724 8.07922 15.8334 10.133 15.8334C12.1869 15.8334 14.0238 14.6724 15.2467 12.8469C13.907 11.5977 12.1093 10.8334 10.133 10.8334C8.1568 10.8334 6.35908 11.5977 5.01939 12.8469ZM9.99996 9.16669C11.3807 9.16669 12.5 8.0474 12.5 6.66669C12.5 5.28598 11.3807 4.16669 9.99996 4.16669C8.61921 4.16669 7.49996 5.28598 7.49996 6.66669C7.49996 8.0474 8.61921 9.16669 9.99996 9.16669Z" fill="#3C3C43" fill-opacity="0.5"/>
</svg>
