<svg width="20" height="20" viewBox="0 0 20 20" fill="none" xmlns="http://www.w3.org/2000/svg">
<path d="M1.66663 16.6667H18.3333V18.3334H1.66663V16.6667ZM3.33329 10.0001H4.99996V15.8334H3.33329V10.0001ZM7.49996 10.0001H9.16663V15.8334H7.49996V10.0001ZM10.8333 10.0001H12.5V15.8334H10.8333V10.0001ZM15 10.0001H16.6666V15.8334H15V10.0001ZM1.66663 5.83342L9.99996 1.66675L18.3333 5.83342V9.16675H1.66663V5.83342ZM9.99996 6.66675C10.4602 6.66675 10.8333 6.29365 10.8333 5.83342C10.8333 5.37318 10.4602 5.00008 9.99996 5.00008C9.53971 5.00008 9.16663 5.37318 9.16663 5.83342C9.16663 6.29365 9.53971 6.66675 9.99996 6.66675Z" fill="white"/>
</svg>
