<svg width="20" height="20" viewBox="0 0 20 20" fill="none" xmlns="http://www.w3.org/2000/svg">
<path d="M12.5 3.33317H4.16667V16.6665H15.8333V6.6665H12.5V3.33317ZM2.5 2.493C2.5 2.03655 2.87291 1.6665 3.33208 1.6665H13.3333L17.4998 5.83317L17.5 17.4936C17.5 17.9573 17.1292 18.3332 16.6722 18.3332H3.32783C2.87063 18.3332 2.5 17.9538 2.5 17.5067V2.493ZM11.2742 12.0385C9.99592 12.7935 8.32194 12.6218 7.22366 11.5235C5.92192 10.2218 5.92192 8.11123 7.22366 6.80948C8.52542 5.50774 10.6359 5.50774 11.9377 6.80948C13.036 7.90776 13.2077 9.58175 12.4527 10.86L14.2947 12.702L13.1162 13.8806L11.2742 12.0385ZM10.7592 10.345C11.4101 9.69417 11.4101 8.63884 10.7592 7.988C10.1083 7.33712 9.05308 7.33712 8.40217 7.988C7.7513 8.63884 7.7513 9.69417 8.40217 10.345C9.05308 10.9959 10.1083 10.9959 10.7592 10.345Z" fill="#BFDBFE"/>
</svg>
