<svg width="20" height="20" viewBox="0 0 20 20" fill="none" xmlns="http://www.w3.org/2000/svg">
<path d="M9.99996 0.416504C15.2927 0.416504 19.5833 4.70711 19.5833 9.99984C19.5833 10.2806 19.5712 10.5585 19.5475 10.8332H18.2921C17.874 15.0443 14.321 18.3332 9.99996 18.3332C5.39758 18.3332 1.66663 14.6022 1.66663 9.99984C1.66663 5.67871 4.95553 2.12575 9.16662 1.70765V0.452234C9.44129 0.428577 9.71921 0.416504 9.99996 0.416504ZM9.16662 3.38475C5.87803 3.79483 3.33329 6.60015 3.33329 9.99984C3.33329 13.6818 6.31806 16.6665 9.99996 16.6665C13.3996 16.6665 16.205 14.1218 16.615 10.8332H9.16662V3.38475ZM10.8333 2.1265V9.1665H17.8733C17.4855 5.45981 14.54 2.51427 10.8333 2.1265Z" fill="#BFDBFE"/>
</svg>
