<svg width="20" height="20" viewBox="0 0 20 20" fill="none" xmlns="http://www.w3.org/2000/svg">
<path d="M10.3451 4.16667H17.5C17.9602 4.16667 18.3333 4.53977 18.3333 5V16.6667C18.3333 17.1269 17.9602 17.5 17.5 17.5H2.49996C2.03973 17.5 1.66663 17.1269 1.66663 16.6667V3.33333C1.66663 2.8731 2.03973 2.5 2.49996 2.5H8.67846L10.3451 4.16667ZM3.33329 4.16667V15.8333H16.6666V5.83333H9.65479L7.98812 4.16667H3.33329ZM7.15924 11.5074C7.10774 11.2905 7.08048 11.0642 7.08048 10.8315C7.08048 10.5988 7.10773 10.3726 7.15922 10.1557L6.33328 9.67883L7.1662 8.23612L7.99273 8.71333C8.32016 8.40358 8.71938 8.16896 9.16279 8.03698V7.08333H10.8286V8.03698C11.272 8.16895 11.6713 8.40358 11.9987 8.71325L12.8253 8.23604L13.6583 9.67875L12.8322 10.1556C12.8837 10.3725 12.911 10.5988 12.911 10.8315C12.911 11.0642 12.8837 11.2904 12.8322 11.5073L13.6583 11.9842L12.8254 13.4269L11.9988 12.9497C11.6714 13.2594 11.2721 13.494 10.8287 13.626V14.5797H9.16287V13.6261C8.71946 13.4941 8.32024 13.2595 7.9928 12.9497L7.16624 13.427L6.33328 11.9843L7.15924 11.5074ZM9.99571 12.0809C10.6857 12.0809 11.2451 11.5215 11.2451 10.8315C11.2451 10.1415 10.6857 9.58208 9.99571 9.58208C9.30571 9.58208 8.74637 10.1415 8.74637 10.8315C8.74637 11.5215 9.30571 12.0809 9.99571 12.0809Z" fill="#BFDBFE"/>
</svg>
