<svg width="20" height="20" viewBox="0 0 20 20" fill="none" xmlns="http://www.w3.org/2000/svg">
<path d="M15 6.66665H16.6667C17.1269 6.66665 17.5 7.03975 17.5 7.49998V17.5C17.5 17.9602 17.1269 18.3333 16.6667 18.3333H3.33333C2.8731 18.3333 2.5 17.9602 2.5 17.5V7.49998C2.5 7.03975 2.8731 6.66665 3.33333 6.66665H5V5.83331C5 3.07189 7.23857 0.833313 10 0.833313C12.7614 0.833313 15 3.07189 15 5.83331V6.66665ZM9.16667 13.1103V15H10.8333V13.1103C11.3315 12.8221 11.6667 12.2836 11.6667 11.6666C11.6667 10.7461 10.9205 9.99998 10 9.99998C9.0795 9.99998 8.33333 10.7461 8.33333 11.6666C8.33333 12.2836 8.6685 12.8221 9.16667 13.1103ZM13.3333 6.66665V5.83331C13.3333 3.99236 11.8409 2.49998 10 2.49998C8.15905 2.49998 6.66667 3.99236 6.66667 5.83331V6.66665H13.3333Z" fill="#3C3C43" fill-opacity="0.5"/>
</svg>
