<svg width="20" height="20" viewBox="0 0 20 20" fill="none" xmlns="http://www.w3.org/2000/svg">
<g clip-path="url(#clip0_2190_7684)">
<path d="M9.99998 14.9999C7.23855 14.9999 4.99998 12.7613 4.99998 9.99992C4.99998 7.23849 7.23855 4.99992 9.99998 4.99992C12.7614 4.99992 15 7.23849 15 9.99992C15 12.7613 12.7614 14.9999 9.99998 14.9999ZM9.99998 13.3333C11.8409 13.3333 13.3333 11.8408 13.3333 9.99992C13.3333 8.15897 11.8409 6.66659 9.99998 6.66659C8.15903 6.66659 6.66665 8.15897 6.66665 9.99992C6.66665 11.8408 8.15903 13.3333 9.99998 13.3333ZM9.16665 0.833252H10.8333V3.33325H9.16665V0.833252ZM9.16665 16.6666H10.8333V19.1666H9.16665V16.6666ZM2.92891 4.10736L4.10742 2.92885L5.87519 4.69662L4.69668 5.87513L2.92891 4.10736ZM14.1247 15.3033L15.3033 14.1247L17.0711 15.8925L15.8926 17.071L14.1247 15.3033ZM15.8926 2.92885L17.0711 4.10736L15.3033 5.87513L14.1247 4.69662L15.8926 2.92885ZM4.69668 14.1247L5.87519 15.3033L4.10742 17.071L2.92891 15.8925L4.69668 14.1247ZM19.1666 9.16659V10.8333H16.6666V9.16659H19.1666ZM3.33331 9.16659V10.8333H0.833313V9.16659H3.33331Z" fill="#3C3C43" fill-opacity="0.75"/>
</g>
<defs>
<clipPath id="clip0_2190_7684">
<rect width="20" height="20" fill="white"/>
</clipPath>
</defs>
</svg>
