<svg width="15" height="17" viewBox="0 0 15 17" fill="none" xmlns="http://www.w3.org/2000/svg">
<path d="M10 1.66667H1.66667V15H13.3333V5H10V1.66667ZM0 0.8265C0 0.370042 0.372908 0 0.832083 0H10.8333L14.9998 4.16667L15 15.8271C15 16.2907 14.6292 16.6667 14.1722 16.6667H0.827833C0.370633 16.6667 0 16.2872 0 15.8402V0.8265ZM8.77417 10.372C7.49592 11.127 5.82194 10.9553 4.72366 9.857C3.42192 8.55525 3.42192 6.44472 4.72366 5.14297C6.02542 3.84123 8.13592 3.84123 9.43767 5.14297C10.536 6.24126 10.7077 7.91525 9.95267 9.1935L11.7947 11.0355L10.6162 12.2141L8.77417 10.372ZM8.25917 8.6785C8.91008 8.02767 8.91008 6.97233 8.25917 6.32149C7.60833 5.67062 6.55308 5.67062 5.90217 6.32149C5.2513 6.97233 5.2513 8.02767 5.90217 8.6785C6.55308 9.32942 7.60833 9.32942 8.25917 8.6785Z" fill="#BFDBFE"/>
</svg>
