<svg width="18" height="18" viewBox="0 0 18 18" fill="none" xmlns="http://www.w3.org/2000/svg">
<path d="M8.33333 0C13.6261 0 17.9167 4.29061 17.9167 9.58333C17.9167 9.86408 17.9046 10.142 17.8809 10.4167H16.6255C16.2074 14.6277 12.6544 17.9167 8.33333 17.9167C3.73096 17.9167 0 14.1857 0 9.58333C0 5.26221 3.2889 1.70925 7.5 1.29115V0.03573C7.77467 0.0120733 8.05258 0 8.33333 0ZM7.5 2.96824C4.21141 3.37832 1.66667 6.18365 1.66667 9.58333C1.66667 13.2652 4.65143 16.25 8.33333 16.25C11.733 16.25 14.5383 13.7052 14.9484 10.4167H7.5V2.96824ZM9.16667 1.71V8.75H16.2067C15.8189 5.04331 12.8733 2.09777 9.16667 1.71Z" fill="#BFDBFE"/>
</svg>
