<svg width="20" height="20" viewBox="0 0 20 20" fill="none" xmlns="http://www.w3.org/2000/svg">
<path d="M16.6708 5.83309V4.16642H3.33744V15.8331H16.6708V14.1664H10.0041C9.54388 14.1664 9.17079 13.7933 9.17079 13.3331V6.66642C9.17079 6.20618 9.54388 5.83309 10.0041 5.83309H16.6708ZM2.50411 2.49976H17.5041C17.9644 2.49976 18.3375 2.87285 18.3375 3.33309V16.6664C18.3375 17.1267 17.9644 17.4998 17.5041 17.4998H2.50411C2.04388 17.4998 1.67078 17.1267 1.67078 16.6664V3.33309C1.67078 2.87285 2.04388 2.49976 2.50411 2.49976ZM10.8375 7.49976V12.4998H16.6708V7.49976H10.8375ZM12.5041 9.16643H15.0041V10.8331H12.5041V9.16643Z" fill="#BFDBFE"/>
</svg>
