<svg width="186" height="32" viewBox="0 0 186 32" fill="none" xmlns="http://www.w3.org/2000/svg">
<path d="M0.00231934 4.50586H10.5367L26.6016 31.9997H16.0673L0.00231934 4.50586Z" fill="#F2F2F2"/>
<path d="M42.6658 4.50586H32.1315L16.0665 31.9997H26.6009L42.6658 4.50586Z" fill="#22C55E"/>
<path d="M26.8884 4.50586H16.354L8.1662 18.5171H18.7006L26.8884 4.50586Z" fill="#E84D8A"/>
<path d="M13.1713 0H2.63688L0 4.50683H10.5344L13.1713 0Z" fill="#33BFFF"/>
<path d="M52.022 29.7398V8.78996H58.3368V11.8194C58.9626 10.7384 59.816 9.89932 60.8969 9.30197C62.0063 8.67618 63.2863 8.36328 64.737 8.36328C66.2161 8.36328 67.4677 8.6904 68.4917 9.34464C69.5442 9.99887 70.3407 10.9945 70.8811 12.3314C71.5354 11.0798 72.474 10.1127 73.6972 9.42997C74.9488 8.71885 76.3283 8.36328 77.8359 8.36328C80.2253 8.36328 82.0031 9.08863 83.1694 10.5393C84.3356 11.9616 84.9188 14.1661 84.9188 17.1528V29.7398H78.476V17.3661C78.476 15.9723 78.2484 14.9625 77.7933 14.3367C77.3666 13.6825 76.627 13.3554 75.5746 13.3554C74.3514 13.3554 73.3985 13.7821 72.7158 14.6354C72.0331 15.4888 71.6918 16.6977 71.6918 18.2622V29.7398H65.249V17.3661C65.249 15.9723 65.0214 14.9625 64.5663 14.3367C64.1112 13.6825 63.3716 13.3554 62.3476 13.3554C61.1245 13.3554 60.1715 13.7821 59.4889 14.6354C58.8062 15.4888 58.4648 16.6977 58.4648 18.2622V29.7398H52.022Z" fill="white"/>
<path d="M100.137 30.2091C97.8899 30.2091 95.9272 29.7682 94.249 28.8864C92.5991 27.9762 91.3191 26.7104 90.4089 25.089C89.4986 23.4392 89.0435 21.4907 89.0435 19.2435C89.0435 17.0248 89.4986 15.1048 90.4089 13.4834C91.3191 11.8336 92.5991 10.5678 94.249 9.68598C95.9272 8.80418 97.8899 8.36328 100.137 8.36328C102.384 8.36328 104.333 8.80418 105.983 9.68598C107.661 10.5678 108.955 11.8336 109.865 13.4834C110.804 15.1048 111.273 17.0248 111.273 19.2435C111.273 21.4907 110.804 23.4392 109.865 25.089C108.955 26.7104 107.661 27.9762 105.983 28.8864C104.333 29.7682 102.384 30.2091 100.137 30.2091ZM100.137 25.3877C101.502 25.3877 102.612 24.8899 103.465 23.8943C104.347 22.8987 104.788 21.3485 104.788 19.2435C104.788 17.167 104.347 15.6452 103.465 14.6781C102.612 13.6825 101.502 13.1847 100.137 13.1847C98.7717 13.1847 97.6624 13.6825 96.809 14.6781C95.9557 15.6452 95.529 17.167 95.529 19.2435C95.529 21.3485 95.9557 22.8987 96.809 23.8943C97.6624 24.8899 98.7717 25.3877 100.137 25.3877Z" fill="white"/>
<path d="M115.406 29.7398V8.78996H121.721V11.862C122.432 10.7242 123.385 9.85665 124.58 9.2593C125.775 8.66195 127.112 8.36328 128.591 8.36328C131.065 8.36328 132.914 9.08863 134.138 10.5393C135.361 11.9616 135.972 14.1661 135.972 17.1528V29.7398H129.529V17.4515C129.529 16.0008 129.259 14.9625 128.719 14.3367C128.178 13.6825 127.382 13.3554 126.329 13.3554C124.964 13.3554 123.869 13.7821 123.044 14.6354C122.247 15.4888 121.849 16.6266 121.849 18.0488V29.7398H115.406Z" fill="white"/>
<path d="M151.876 30.2091C149.401 30.2091 147.267 29.7682 145.475 28.8864C143.712 27.9762 142.346 26.7104 141.379 25.089C140.441 23.4392 139.971 21.5049 139.971 19.2862C139.971 17.1244 140.426 15.2328 141.337 13.6114C142.275 11.9616 143.541 10.6816 145.134 9.77131C146.755 8.83263 148.619 8.36328 150.724 8.36328C153.767 8.36328 156.185 9.33041 157.977 11.2647C159.769 13.1705 160.665 15.759 160.665 19.0302V20.6516H146.115C146.343 22.3014 146.94 23.5103 147.907 24.2783C148.903 25.0179 150.268 25.3877 152.004 25.3877C153.141 25.3877 154.293 25.217 155.46 24.8756C156.626 24.5343 157.678 24.0081 158.617 23.2969L160.324 27.6064C159.271 28.4028 157.977 29.0428 156.441 29.5264C154.933 29.9815 153.412 30.2091 151.876 30.2091ZM150.98 12.63C149.614 12.63 148.505 13.0425 147.651 13.8674C146.827 14.6923 146.315 15.8443 146.115 17.3235H155.332C155.161 14.1945 153.71 12.63 150.98 12.63Z" fill="white"/>
<path d="M170.438 29.7398L161.307 8.78996H168.091L173.339 22.1023L178.758 8.78996H185.115L175.856 29.7398H170.438Z" fill="white"/>
</svg>
