<svg width="31" height="24" viewBox="0 0 31 24" fill="none" xmlns="http://www.w3.org/2000/svg">
<path d="M0.185509 8.5343C0.117472 8.47352 0.0459621 8.40965 0.0199494 8.29321H30.9974C30.9549 8.33846 30.9177 8.37847 30.8838 8.41492C30.8197 8.48383 30.7675 8.54 30.7136 8.59476C30.2436 9.07222 29.7736 9.5496 29.3036 10.027C27.5172 11.8412 25.7309 13.6554 23.9482 15.4737C23.7771 15.6477 23.6078 15.7262 23.3613 15.7262C18.1037 15.7196 12.8467 15.7196 7.58912 15.7262C7.35552 15.7268 7.19335 15.6581 7.02861 15.49C5.50107 13.9311 3.96999 12.3755 2.43877 10.8197C1.70641 10.0756 0.974022 9.33146 0.241966 8.58691C0.224199 8.56885 0.204997 8.5517 0.185509 8.5343Z" fill="#3B4FA3"/>
<path d="M10.1777 18.6813C9.64405 18.1394 9.1104 17.5975 8.57694 17.0554C8.54431 17.0222 8.51428 16.9862 8.47324 16.9369C8.44951 16.9084 8.4221 16.8755 8.38838 16.8362H22.519C22.5239 16.9419 22.4592 16.9957 22.3974 17.047C22.3789 17.0624 22.3606 17.0776 22.3446 17.094C21.3946 18.0604 20.4442 19.0263 19.4937 19.9921C18.2262 21.2803 16.9587 22.5684 15.6924 23.8577L15.6876 23.8626C15.5554 23.9971 15.4772 24.0766 15.2954 23.8904C13.5935 22.15 11.8856 20.4157 10.1777 18.6813Z" fill="#3B4FA3"/>
<path d="M6.86644 0.130241C6.99514 -0.000586271 7.07237 -0.0699247 7.24161 0.103421C8.99565 1.90017 10.7548 3.69213 12.5138 5.48398C13.0065 5.9858 13.4991 6.48761 13.9916 6.98952C14.0105 7.00877 14.0272 7.02983 14.0514 7.0604C14.0658 7.07863 14.083 7.10025 14.1048 7.12688H0C0.0254741 7.09833 0.0476333 7.073 0.0677736 7.04998C0.107161 7.00496 0.138827 6.96876 0.172465 6.93457C0.767541 6.32986 1.36271 5.72524 1.95787 5.12063C3.59478 3.45772 5.23165 1.79486 6.86644 0.130241Z" fill="#EFB101"/>
<path d="M29.2125 5.31435C29.7614 5.87179 30.3103 6.42924 30.8591 6.98689C30.8827 7.01091 30.9043 7.03696 30.9383 7.0779C30.9552 7.09829 30.9752 7.12237 31 7.15174H16.8958C16.8749 7.05855 16.9288 7.01516 16.9793 6.97452C16.994 6.96266 17.0085 6.95104 17.0207 6.93849C17.9772 5.96531 18.9344 4.99261 19.8916 4.01988C21.1676 2.72315 22.4437 1.42635 23.7185 0.128272C23.8491 -0.00517188 23.9263 -0.0653524 24.0943 0.106031C25.7969 1.84559 27.5046 3.5799 29.2125 5.31435Z" fill="#EFB101"/>
</svg>
